<svg version="1.1" xmlns="http://www.w3.org/2000/svg" xmlns:xlink="http://www.w3.org/1999/xlink" width="674" height="107"><defs/><g><g transform="translate(-38,-150) scale(1,1)"><rect fill="#C0C0C0" stroke="none" x="55" y="167" width="134" height="57" opacity="0.2"/></g><g transform="translate(-38,-150) scale(1,1)"><rect fill="#ffffff" stroke="none" x="48" y="160" width="134" height="57"/></g><g transform="translate(-38,-150) scale(1,1)"><path fill="none" stroke="#000000" d="M 48 160 L 182 160 L 182 217 L 48 217 L 48 160 Z Z" stroke-miterlimit="10"/></g><g transform="translate(-38,-150) scale(1,1)"><path fill="none" stroke="#000000" d="M 48 185 L 182 185" stroke-miterlimit="10"/></g><g transform="translate(-38,-150) scale(1,1)"><path fill="none" stroke="#000000" d="M 48 208 L 182 208" stroke-miterlimit="10"/></g><g transform="translate(-38,-150) scale(1,1)"><g><path fill="none" stroke="none"/><text fill="#000000" stroke="none" font-family="Arial" font-size="13px" font-style="normal" font-weight="bold" text-decoration="none" x="87" y="179.5">Customer</text></g></g><g transform="translate(-38,-150) scale(1,1)"><g><path fill="none" stroke="none"/><text fill="#000000" stroke="none" font-family="Arial" font-size="13px" font-style="normal" font-weight="normal" text-decoration="none" x="53" y="202.5">+personalInformation</text></g></g><g transform="translate(-38,-150) scale(1,1)"><rect fill="#C0C0C0" stroke="none" x="311" y="167" width="120" height="87" opacity="0.2"/></g><g transform="translate(-38,-150) scale(1,1)"><rect fill="#ffffff" stroke="none" x="304" y="160" width="120" height="87"/></g><g transform="translate(-38,-150) scale(1,1)"><path fill="none" stroke="#000000" d="M 304 160 L 424 160 L 424 247 L 304 247 L 304 160 Z Z" stroke-miterlimit="10"/></g><g transform="translate(-38,-150) scale(1,1)"><path fill="none" stroke="#000000" d="M 304 185 L 424 185" stroke-miterlimit="10"/></g><g transform="translate(-38,-150) scale(1,1)"><path fill="none" stroke="#000000" d="M 304 238 L 424 238" stroke-miterlimit="10"/></g><g transform="translate(-38,-150) scale(1,1)"><g><path fill="none" stroke="none"/><text fill="#000000" stroke="none" font-family="Arial" font-size="13px" font-style="normal" font-weight="bold" text-decoration="none" x="329.5" y="179.5">Reservation</text></g></g><g transform="translate(-38,-150) scale(1,1)"><g><path fill="none" stroke="none"/><text fill="#000000" stroke="none" font-family="Arial" font-size="13px" font-style="normal" font-weight="normal" text-decoration="none" x="309" y="202.5">+start</text></g></g><g transform="translate(-38,-150) scale(1,1)"><g><path fill="none" stroke="none"/><text fill="#000000" stroke="none" font-family="Arial" font-size="13px" font-style="normal" font-weight="normal" text-decoration="none" x="309" y="217.5">+end</text></g></g><g transform="translate(-38,-150) scale(1,1)"><g><path fill="none" stroke="none"/><text fill="#000000" stroke="none" font-family="Arial" font-size="13px" font-style="normal" font-weight="normal" text-decoration="none" x="309" y="232.5">+price</text></g></g><g transform="translate(-38,-150) scale(1,1)"><rect fill="#C0C0C0" stroke="none" x="583" y="175" width="126" height="72" opacity="0.2"/></g><g transform="translate(-38,-150) scale(1,1)"><rect fill="#ffffff" stroke="none" x="576" y="168" width="126" height="72"/></g><g transform="translate(-38,-150) scale(1,1)"><path fill="none" stroke="#000000" d="M 576 168 L 702 168 L 702 240 L 576 240 L 576 168 Z Z" stroke-miterlimit="10"/></g><g transform="translate(-38,-150) scale(1,1)"><path fill="none" stroke="#000000" d="M 576 193 L 702 193" stroke-miterlimit="10"/></g><g transform="translate(-38,-150) scale(1,1)"><path fill="none" stroke="#000000" d="M 576 231 L 702 231" stroke-miterlimit="10"/></g><g transform="translate(-38,-150) scale(1,1)"><g><path fill="none" stroke="none"/><text fill="#000000" stroke="none" font-family="Arial" font-size="13px" font-style="normal" font-weight="bold" text-decoration="none" x="622" y="187.5">Room</text></g></g><g transform="translate(-38,-150) scale(1,1)"><g><path fill="none" stroke="none"/><text fill="#000000" stroke="none" font-family="Arial" font-size="13px" font-style="normal" font-weight="normal" text-decoration="none" x="581" y="210.5">+roomNr</text></g></g><g transform="translate(-38,-150) scale(1,1)"><g><path fill="none" stroke="none"/><text fill="#000000" stroke="none" font-family="Arial" font-size="13px" font-style="normal" font-weight="normal" text-decoration="none" x="581" y="225.5">+description</text></g></g><g transform="translate(-38,-150) scale(1,1)"><path fill="none" stroke="#000000" d="M 183 192 L 303 199" stroke-miterlimit="10"/></g><g transform="translate(-38,-150) scale(1,1)"><g><path fill="none" stroke="none"/><text fill="#000000" stroke="none" font-family="Arial" font-size="13px" font-style="normal" font-weight="normal" text-decoration="none" x="220" y="187">+makes</text></g></g><g transform="translate(-38,-150) scale(1,1)"><g><path fill="none" stroke="none"/><text fill="#000000" stroke="none" font-family="Arial" font-size="13px" font-style="normal" font-weight="normal" text-decoration="none" x="200" y="212">1</text></g></g><g transform="translate(-38,-150) scale(1,1)"><g><path fill="none" stroke="none"/><text fill="#000000" stroke="none" font-family="Arial" font-size="13px" font-style="normal" font-weight="normal" text-decoration="none" x="270" y="217">0..*</text></g></g><g transform="translate(-38,-150) scale(1,1)"><path fill="none" stroke="#000000" d="M 425 203 L 575 204" stroke-miterlimit="10"/></g><g transform="translate(-38,-150) scale(1,1)"><g><path fill="none" stroke="none"/><text fill="#000000" stroke="none" font-family="Arial" font-size="13px" font-style="normal" font-weight="normal" text-decoration="none" x="471" y="195">+reserves</text></g></g><g transform="translate(-38,-150) scale(1,1)"><g><path fill="none" stroke="none"/><text fill="#000000" stroke="none" font-family="Arial" font-size="13px" font-style="normal" font-weight="normal" text-decoration="none" x="436" y="222">0..*</text></g></g><g transform="translate(-38,-150) scale(1,1)"><g><path fill="none" stroke="none"/><text fill="#000000" stroke="none" font-family="Arial" font-size="13px" font-style="normal" font-weight="normal" text-decoration="none" x="550" y="223">1</text></g></g></g></svg>